<?xml version="1.0" encoding="iso-8859-1"?>
<!-- Generator: Adobe Illustrator 19.0.0, SVG Export Plug-In . SVG Version: 6.00 Build 0)  -->
<svg version="1.1" id="Layer_1" xmlns="http://www.w3.org/2000/svg" xmlns:xlink="http://www.w3.org/1999/xlink" x="0px" y="0px"
	 viewBox="0 0 329.988 329.988" style="enable-background:new 0 0 329.988 329.988;" xml:space="preserve">
<path id="XMLID_227_" d="M329.988,174.915c0-19.47-12.441-36.085-29.79-42.331c-0.773-27.953-15.317-53.871-41.16-73.203
	c-25.264-18.899-58.62-29.307-93.923-29.307c-35.306,0-68.664,10.408-93.929,29.307c-25.819,19.313-40.361,45.201-41.161,73.123
	C12.554,138.684,0,155.357,0,174.915c0,19.565,12.539,36.247,29.994,42.441v17.557c0,35.841,29.159,65,65,65h140
	c35.841,0,65-29.159,65-65v-17.557C317.449,211.162,329.988,194.48,329.988,174.915z M285.228,189.925
	c-0.079-0.001-0.155-0.012-0.234-0.012h-240c-0.079,0-0.156,0.011-0.235,0.012C36.601,189.802,30,183.121,30,174.915
	c0-8.259,6.723-14.979,14.987-14.979H285c8.265,0,14.988,6.719,14.988,14.979C299.988,183.121,293.387,189.801,285.228,189.925z
	 M89.156,83.404c20.112-15.045,47.088-23.33,75.959-23.33c28.868,0,55.842,8.285,75.952,23.329
	c17.167,12.842,27.294,29.206,28.932,46.533H60.223C61.861,112.61,71.989,96.246,89.156,83.404z M234.994,269.913h-140
	c-19.299,0-35-15.701-35-35v-14.977h210v14.977C269.994,254.212,254.293,269.913,234.994,269.913z"/>
<g>
</g>
<g>
</g>
<g>
</g>
<g>
</g>
<g>
</g>
<g>
</g>
<g>
</g>
<g>
</g>
<g>
</g>
<g>
</g>
<g>
</g>
<g>
</g>
<g>
</g>
<g>
</g>
<g>
</g>
</svg>
